# xmcd CD database file
#
# Track frame offsets:
#	150
#	13407
#	32480
#	46119
#	61654
#	75558
#	91973
#	103303
#	116262
#	130314
#	149958
#	158306
#
# Disc length: 2280 seconds
#
# Revision: 0
# Processed by: cddbd v1.5.1PL0 Copyright (c) Steve Scherf et al.
# Submitted via: CDex 1.51
#
DISCID=9508e60c
DTITLE=Boxcar Willie - The Best of Boxcar Willie CD1
DYEAR=2004
DGENRE=Country
TTITLE0="T" for Texas
TTITLE1=Winds of Yesterday
TTITLE2=Lonesome Whistle
TTITLE3=Wabash Cannonball
TTITLE4=You Are My Sunshine
TTITLE5=Thru a Boxcar Door
TTITLE6=Youth of Yesterday
TTITLE7=In The Pines
TTITLE8=Boxcar Blues
TTITLE9=Danny Boy
TTITLE10=Daddy Was a Railroad Man
TTITLE11=Spirit of America
EXTD=YEAR: 2004
EXTT0=
EXTT1=
EXTT2=
EXTT3=
EXTT4=
EXTT5=
EXTT6=
EXTT7=
EXTT8=
EXTT9=
EXTT10=
EXTT11=
PLAYORDER=
